# xmcd CD database file
#
# Track frame offsets:
#	150
#	17782
#	31408
#	46411
#	63087
#	78662
#	97025
#	109264
#	124278
#	138352
#	157591
#	170288
#
# Disc length: 2465 seconds
#
# Revision: 0
# Processed by: cddbd v1.5.2PL0 Copyright (c) Steve Scherf et al.
# Submitted via: CDex 1.79
#
DISCID=96099f0c
DTITLE=Gitty - You Need A Brand New Start
DYEAR=2012
DGENRE=Country
TTITLE0=I Want Someone
TTITLE1=You Need A Brand New Start
TTITLE2=A Letter To Jack
TTITLE3=Don't Let Me Go
TTITLE4=Heaven Or Hell
TTITLE5=We've Got A Deal
TTITLE6=I Never Ever Take You Back
TTITLE7=Like A River
TTITLE8=Sometimes I Wonder Where You Are
TTITLE9=If You Listen To Your Heart
TTITLE10=It's A Chain Reaction
TTITLE11=Dancing At The Party
EXTD=YEAR: 2012
EXTT0=
EXTT1=
EXTT2=
EXTT3=
EXTT4=
EXTT5=
EXTT6=
EXTT7=
EXTT8=
EXTT9=
EXTT10=
EXTT11=
PLAYORDER=
